<?xml version="1.0" encoding="UTF-8"?>
<svg id="Layer_2" data-name="Layer 2" xmlns="http://www.w3.org/2000/svg" viewBox="0 0 1328.37 1451.61" style="height: 150px">
  <defs>
    <style>
      .cls-1 {
        fill:rgb(0, 0, 0);
      }
    </style>
  </defs>
  <g id="Layer_1-2" data-name="Layer 1">
    <path class="cls-1" d="M600.11,1451.3c-152.15-6.68-296.11-68.81-409.43-168.97-126.2-111.55-220.89-303.48-171.86-472.9,26.44-91.38,98.61-165.8,193.09-185.6,20.61-4.32,38.91-3.64,59.59-3.18,27.3.61,67.18,16.4,90.32,30.75,98.36,60.98,126.62,208.76,32.8,288.05-68.09,57.55-174.97,47.44-214.63-37.27-17.52-37.42-10.29-88.72,23.7-114.63,49.56-37.78,124.15-15.26,107.03,56.02-1,4.16-8.43,12.71-6.13,15.99.91,1.29,10.92.15,12.55-.57,4.95-2.19,12.88-14.96,14.78-20.21,14.44-39.72-11.23-78.1-48.97-90.54-32.91-10.85-54.09-7.44-84.67,7.92-66.84,33.57-68.68,96.64-61.12,162.83.42,3.72-.92,8.48,1,11.81.37.65,2.03.58,2.03,1.25,0,1.26-1.37,2.87-1.06,4.75.11.68,1.72.72,1.97,1.43,31.13,87.17,103.78,153.29,187.37,190.36,54.55,24.19,105.7,36.32,165.16,42.8,59.83,6.52,108.65,1.51,165.48-16.47,5.16-1.63,14.34-3.95,15.98-9.51h-16.5c-10.3,0-31.93,9.02-44.96,10.03-13.86,1.07-46.06,1.32-58.75-2.31-5.48-1.57-7.56-2.31-6.53-7.97,4.38-24.15,32.05-59.41,50.22-75.75,59.77-53.73,140.79-61.01,217.98-53.94,11.5,1.05,23.95,9.31,26.32-7.78.72-5.24-8.13-21.57-10.55-27.98-10.81-28.68-20.51-57.82-30.01-86.96-.36-.94-.9-1.8-1.91-2.13-3.37-1.1-15.78,5.99-20.06,7.63-40.54,15.57-82.56,27.66-114.91,58.56-2.48,2.37-7.91,10.25-10.6,12.37-1.46,1.15-4.42,1.24-6.17,3.35-16.13-1.55-35.35,1.83-51.07-.05-2.62-.31-4.96-1.37-6.98-3.01-4.34-51.31,10.84-100.01,43.99-138.98,37.06-43.57,97.38-64.75,146.52-91.43,6.98-3.79,13.46-8.71,20.94-11.56l-.9-3.52c-21.04-17.22-45.53-29.89-70.35-40.29-10.63,13.37-24.65,18.91-38.22,27.84-39.81,26.18-85.85,62.7-113.28,101.67-4.91,6.98-10.31,21.78-18.77,23.22s-22.14,2.6-30.91,3.08c-8.91.49-13.86,2.11-16.96-7.02-3.97-11.66-5.95-41.16-6.56-54.41-3.06-65.87,35.35-112.4,79.08-155.94l.94-3.53c-44.89-11-90.13-20.35-135.59-28.89-12.21-2.76-14.37,10.65-25.85,1.85-3.37-2.59-6.21-6.83-9.52-9.48-5.11-4.1-11.92-7.51-18.61-7.44-3.77.04-2.25,11.91-5.67,14.68-2.19,1.77-11.84,1.54-14.8.84-11-2.62-13.17-26.2-23.21-29.78-12.82-4.58-8.98,4.37-10.75,11.51-.17.69-1.41.52-1.91,1.5-.41.79.48,2.46-.63,3.33-1.54,1.21-8.59,1.15-10.72.66-11.56-2.64-12.4-33.22-27.23-27.79l-4.88,17.11c-2.1,1.68-15.74,1.58-17.65-.81-6.7-8.35-8.23-32.87-22.49-34.25-2.24-.22-1.07.18-1.46,1.45-1.25,4.04-1.84,8.93-3.06,12.77-.25.78-1.63.79-1.69.93-.27.68.97,1.73.62,2.62-.15.38-5.85,5.21-6.24,5.35-2.37.83-7.69,1.45-9.95.67-3.64-1.26-11.74-25.04-14.86-30.12-9.28-15.09-11.03-.52-16.57,7.02-3.95,5.38-8.45,8.13-15.52,6.06-8.47-2.48-12.12-33.29-17.94-36.04-11.74-5.54-10.12,15.69-19.32,17.19-10.55,1.72-12.72-3.35-16.2-11.67-1.91-4.56-6.39-23.13-9.46-24.53l-7.62-1.5c-6.39,7.65-8.55,17.94-21.38,13.49-9.11-3.16-8.02-22.77-10.03-30.95-6.33-25.75-15.02,1.87-24.7,4.78-3.5,1.06-11.55-.11-13.79-2.8-.78-.94-2.25-12.11-2.3-14.19-.16-6.5,2.68-15.37.29-21.28-1.3-3.21-13.1-14.01-16.21-17.78-11.04-13.4-31.27-36.99-29.04-54.98,1.12-9.05,25.56-33.19,32.99-40.99,61.01-64.03,132.21-126.96,207.69-173.22,97.1-59.51,207.19-105.67,318.45-131.47,30.62-7.1,88.62-23.38,114.46-1.34,32.66,27.86,9.71,55.11-3.14,85.64-1.74,4.12-2.44,9.94-5.43,12.77l-20.08,57.19,75.49-5.79c326.35-12.13,594.51,266.42,607.42,585.6.53,13.1.4,27.85,0,40.99-1.03,34.22-4.52,70.14-11.1,102.36-17.07,83.57-41.75,154.9-86.08,227.83-77.2,127-187.31,225.4-325.77,281.1-69.35,27.9-138.06,44.47-213.48,50.48-7.85.63-16.74-.32-24.49,2.01-22.25-.73-44.76.98-66.99,0ZM649.11,51.78c.51-1.97,2.81-10.11,2.46-11.04-3.61-2.38-8.91-8.92-11.07-3.08-137.63,15.51-276.16,68.14-392.26,142.67-68.45,43.94-127.79,98.6-185.06,155.85-3.56,6.66-1.73,6.27,3,8.51,2.71,1.28,3.37,1.88,6.81,2.7,32.56,7.77,71.18,12.23,104.56,16.41,7.62.95,15.43,3.18,23.13,3.87,5.12.46,10.3-.57,15.48,1.01,1.75-1.81-5.5-7.86-6.82-9.66-9.83-13.39-18.13-28.9-21.17-45.31-.06-1.6.62-4.14-1-5-.04-.33.04-.67,0-1-.07-.65.05-1.34,0-2-.76-9.3-.59-15.7,0-24.99,1.58-.66,1.58-4.34,0-5,.56-6.61,2.93-14.61,5-20.99,1.55-4.77,4.25-12.38,6-16.99,4.32-11.36,28.82-31.58,39.25-38.29,14.88-9.58,26.04-14.62,43.74-17.69,1.27-.22,1.89-.99,2-1,.33-.04.67.04,1,0,11.25-1.24,35.79,3.55,46.21,7.28,27.17,9.72,48.36,31.52,61.13,56.85,8.56,16.98,12.9,34.14,12.64,53.32l-3.25,23.74-6.74,19.75-1,2c-.36.65-.63,1.36-1,2-3.7,6.4-11.85,15.85-16.97,21.52-9.5,10.52-21.27,22.24-35.01,26.48-.25,1.81,1.9.75,2.99.99,3.71.81,5.12.87,9,1,1.33.05,2.67-.03,4,0,3.66.08,7.34-.09,11,0,1.33.03,2.67-.05,4,0,3.54,1.73,10.06,2.92,14,3,.65.01,1.35.06,2,0,1.16,1.18,2.49,1.07,4,1,.98-.04,2.04.12,3,0,2.54-.12,5.39,2.87,5.72,2.95,1.36.36,3.25-.24,4.55.27,12.93,5,22.81,22.54,16.73,35.77-.13.28.14.75,0,1-.13.23-.71.73-1,1-3.05,2.83-7.57,2.17-11.49,1.99-11.08-.51-25.46-3.46-36.73-5.25-29.85-4.75-59.37-10.52-88.55-17.44-7.39-1.75-24.95-7.39-31.21-7.29-.66.01-1.35-.07-2,0-1.16-1.27-2.52-.94-4-1-50.11-1.94-110.02-18.16-160.58-25.89-7.69-1.18-17.17-2.68-24.39-2.1-1.64.13-3.35-.1-5,0l-.02,1.51c.13,2.68,3.96,4.04,5.02,5.49,3.49,4.78,2.57,6.37,8,11,1.31,3,3.57,6.36,7,7,.32.35.68.65,1,1,31.92,34.72,86.78,57.08,129.98,73.97.26.1.58.84,1,1,2.13.83,4.21,1.32,6,2,2.19.83,5.32,3.07,8.32,4.17,41.67,15.33,83.07,29.36,127.17,33.8,13.67,1.38,51.45-5.39,65.49-9.48,23.91-6.97,62.65-31.25,79.49-49.48,24.19-26.18,33.75-56.38,45.48-88.98,8.02-22.29,16.14-43.75,24-65.98,3.05-8.62,5.92-14.52,8-23.99,2.18-9.94,3.01-20.27,5.27-30.22,8.24-36.16,22.2-73.37,33.72-109.74.7-2.22,1.44-3.16,2-6,.06-.32-.08-.69,0-1,.35-.3.77-.6,1-1,.6-1.05.61-2.15,1-3,6.97-15.34,13.69-30.46,20-45.98,5.38-13.25,10.31-23.74,14-37.99ZM715.1,198.73c-4.39.21-8.69.75-13,1-.33.02-1.43-.11-3,0-5.87.43-11.02,1.58-16,2-.13.01-.49-.04-1,0-7.94.67-16.02.84-24,1-2.06.04-4.25-.58-6,1-2.31-.16-4.68.07-7,0-.33,0-.67,0-1,0-1,.02-2.01-.06-3,0-1.27.08-2.59-.3-3.84.14-1.27,1.75-.76,4.14-1.16,5.86-.38,1.61-.67,3.36-1,5-.57,2.8-.67,5.16-1,7-.3,1.68-.74,3.28-1,5-.02.11-.71.34-1,2-.31,1.78.22,4.11,0,6h-2c-.09.66.07,1.35,0,2-.1.97.01,2.01,0,3-5.42,10.26-7.37,22.01-11,32.99-17.23,52.15-39.94,109.07-62.99,158.95-.04.1-1.32-.4-1.99.72-4.17,7.08-3.04,24.76-3.01,33.27.03,7.88.91,15.56.15,23.26,2.9,5.84,7.04,10.88,11.34,15.74,14.29,16.15,38.75,36.92,55.5,51.48,16.85,14.65,35.72,27.14,51.01,43.47-5.21,2.72-12.81,10.19-17.48,13.97-43.5,35.22-104.27,88.73-107.55,148.43-.19,3.41,1.13,7.74,1.04,9.55,0,.15-.99,1.15-1.03,2.43-.13,3.73-1.79,23.33.04,24.56,5.78.22,7.47-6.59,9.99-9.99.24-.33.7-.61,1-1,.58-.75.74-1.67,1-2,1.29-1.65,2.68-3.36,4-5,.6-.75,1.93-1.69,3-3,.29-.36.7-.64,1-1,9.43-11.49,19.21-22.72,30-32.99,8.8-8.38,18.24-16.75,28-23.99,42.35-31.44,83.85-58.42,123-94.46,6.64-6.11,18.47-16.76,14.99-26.5.41-.5.58-1.44,1-2,.25-.34.73-.61,1-1,7.25-10.52,6.71-11.34-1.49-21.01-17.05-20.1-44.45-41.04-64.03-59.94-17.84-17.21-37.44-35.71-54.49-53.48-3.28-3.42-13.47-14.24-15.42-17.57-1.62-2.76-2.69-5.69-2.55-8.95.36-.14,2.66-4.44,4.94-4.08l-.93-2.91c6.92-1.59,13.86.34,20.36,3.12,6.95,2.98,19.23,12.61,25.63,13.86.3.06.69.01,1,0,.43,2.1,2.58,4.67,3.99,6.22,6.65,7.27,17.33,15.69,25,22.77.35.32.65.68,1,1s.65.68,1,1c11.78,10.84,24.35,21.06,36,31.99,20.9,19.61,40.7,38.69,57.43,62.04,14.55,20.31,31.28,31.9,49.08,48.9,49.09,46.87,108.78,114.02,130.93,178.99,3.91,11.48,5.47,24.15,9.49,35.49,7.45,21,33.14,49.42,47.03,68.22,3.87,5.23,7.28,13.6,12.99,16.22.12.97-.12,2.03,0,3,.21,1.73.99,1.89,1,2,.48,3.98,1.53,8.04,2,12,.08.65-.06,1.34,0,2,.12,1.31-.06,2.68,0,4-4.51.98-14.95,3.45-19,2-.38-.14-5.3-4.69-6.05-5.45-7.25-7.31-15.16-17.54-22.48-25.48-27.89-30.24-54.98-61.74-83.43-91.56-18.46-19.34-44-47.49-64.01-63.96-8.84-7.28-11.41-6.05-21.97-2.95-28.39,8.34-72.95,32.44-100.07,46.9-36.52,19.47-63.95,38.24-84.94,74.52-4.47,7.73-16.48,26.23-14,34.99-3.42,0-2.75-.88-2.71,2.19.09,6.38-7,23.77-4.37,27.37.68.93,3.2,2.43,4.4,2.22l36.43-28.75c27.75-16.99,58.08-34.79,90.23-42.02,3.86-.87,1.22-1.31,2-2,.28-.25,2.2.2,3,0,14.44-3.54,33.86-10.3,45.24-19.25,2.56-2.01,4.89-.66,5.28-4.8,8.68-1.83,9.41,13.25,11.71,19.32,12.55,33.11,32.67,62.94,42.47,98.5,5.87,21.33,8.7,52.95.47,73.86-2.13,5.42-13.38,23.19-13.18,26.31-3.96,1.51-6.85,6.73-9,10-3.08,2.42-4.22,4.77-6,8-6.02,3.25-10.23,10.12-15.47,15.02-36.61,34.28-73.62,54.66-118.51,75.95-.39.18-.68.85-1,1-1.1.52-4.07,1.19-6,2s-4.64.14-4,3c-.32.05-.68-.06-1,0s-.69-.08-1,0c-1.1.28-1.05-.17-2,1-18.54,5.69-36.6,12.27-55.43,17.06-20.58,5.22-42.78,9.97-64.2,12.79-45.58,6-85.11-.09-129.97-6.73-15.19-2.25-35.21-3.97-48.76-9.27-14.68-5.74-30.06-9.63-44.78-15.17-72.44-27.29-127.82-65.26-179.32-122.62-17.07-19.01-28.44-38.23-43.48-57.99.59-2.82-1.96-3.97-3-6-.34-.66-.65-1.34-1-2-1.11-2.11-1.1-5.8-4-7-.17-.55.17-1.47,0-2-2.54-7.7-6.35-15.54-9-22.99-.32-.91-.84-1.56-1-2-.11-.29.11-.7,0-1-.37-1.04-.97-1.89-1-2-.08-.31.08-.68,0-1-.4-1.65.77-4.25-2-5-.09-.65.08-1.35,0-2-.24-1.92.62-4.21-2-5-.09-.64.07-1.35,0-2-.22-2.08-1.14-3.57,0-5.99h-2c-.03-.33.02-.67,0-1-.47-7.41-3.03-14.71-3.89-22.6-2.82-25.8.15-62.96,8.18-86.58,3-8.82,8.19-16.75,9.71-25.78,6.85-9.92,13.04-20.47,20.58-29.9,14-17.52,32.2-31.7,51.41-43.07.28-.12.72.12,1,0,1.35-.57,2.56-1.82,3-2,34.13-13.49,57.33-13.53,92.99-6,.37.08,1.62.7,3,1,.85.19,1.87.75,3,1,8.45,5.16,17.63,9.1,25.91,14.58,28.96,19.16,51.59,49.96,52.11,85.93.05,3.62-.94,8.58-1.04,13.45,0,.11-.75.28-1,2-.14.94.09,2.03,0,3l-.97.51c-6.2,30.09-25.89,48.21-54.49,57.5-27.2,8.84-41.69,1.87-62.53-14.03-.44-.33-1.09-1.28-2-2-.49-.38-.85-1.82-2-2-3.34-3.22-4.1-10.12-7-13-2.01-6.08-1.58-12.33,1-17.99,6.05-3.69,13.34-4.54,20.37-3.87,2.44.83,3.18,11.02,4.3,13.66.7,1.66,2.16,1.04,2.33,1.2.26.25-.1,2.3,1.6,2.86,9.2,3.01,9.18-4.64,10.26-11.49,2.33-14.76,4.57-31.51-9.91-40.81-2.17-1.39-3.8-.99-4.95-1.54-.46-.22-.75-1.21-3-2-4-1.4-10.31-1.91-14,0-.66-.02-1.34-.01-2,0-1.79.03-6.02.82-5,3-12.93,4.46-16.69,12.3-23,22.99-2.09,3.54-6.23,7.47-7,12-.19,1.15.03,2.72,0,4-.16,5.98.51,13.91,1,19.99.85,10.57.74,10.52,5,19.99,13.94,30.97,35.96,47.62,69.99,49.98,23.85,1.65,42.53-2.22,65.24-10.06,9.44-6.57,19.03-11.78,27.75-19.93,14.09-13.18,25.42-31.88,31.01-50.47,1.33-4.4,4.37-16.51,3.98-20.51-.28-7.39.9-14.61,1-21.99.96-74.46-55.46-138.67-127.74-152.7-110.03-21.35-201.94,56.43-232.22,157.69-4.84,16.19-8.65,30.44-10,46.98-.08.98,0,2.01,0,3-.01,1.67,0,3.33,0,5-1.17,6.25-.85,12.63-1,18.99-.33,13.98-.8,29.06,1.98,41.67,1.87,8.44.86,19.12,3.02,28.31.8,11.67,3.62,23.81,6.29,35.23.34,1.46,1.45,2.7,1.71,3.76,7.44,30.55,14.02,49.51,27,77.97,56.17,123.2,157.85,217.53,279.61,275.76,118.12,56.49,242.35,68.87,371.89,53.2,57.07-6.9,110.6-23.9,163.81-44.96l.6-3.11c4.42,2.01,11.13-1.9,15.66-3.82,74.11-31.36,153.24-91.46,205.85-152.08,98.62-113.64,165.33-253.2,168.43-406.91.09-4.59-.99-9.44-1-13-.02-4.64,2.87-11.41,0-15.99.15-3.3.02-6.69,0-10,0-1.77-1-1.89-1-2-.05-3.99.03-8.01,0-12-.03-3.58.82-8.02-1-11,.22-5.61-.62-9.84-1-14.99-.07-.99.05-2.01,0-3v-2l-1-5c.07-1.72-.82-3.41-1-5-.48-4.12-1.62-8.33-2-12-2.41-23.04-3.67-46.64-11.08-69.21-.33-1.02-1.55-.1-1.92-2.77-.04-.33.03-.67,0-1,.83-.56.04-.8,0-1-2.5-12.59-7.33-27.72-11.54-39.95-6.96-20.23-33.11-84.11-47.46-97.01-1.49-5.23-3.73-8.15-8-11-3.36-7.45-7.71-14.5-12.17-21.32-75.74-115.82-197.12-202.92-332.78-233.59-.4-.09-1.54-.69-3-1-.32-.07-.68.07-1,0-.07-.01-.21-.86-1-1-1.19-.22-2.73.16-4,0-.11-.01-.25-.96-2-1-.66-.01-1.35-.05-2,0-1.18-1.38-2.64-.81-4-1-.96-.13-2.04.14-3,0-.16-.02-1.18-.76-3-1-.96-.13-2.03.11-3,0-.07,0-.27-.96-1-1-1.87-.1-4.14-.14-6,0-.47-1.26-1.91-1.01-3-1-.99.01-2.01-.07-3,0-.48-1.3-1.9-.96-3-1-1.96-.07-4.13.21-6,0-.11-.01-.23-.87-2-1-1.65-.12-3.34.07-5,0-1.54-.07-.78-.25-3,0-.65.07-1.47-.14-2,0-.5-1.41-1.99-.82-3-1-.59-.11-1.34.05-2,0-1.7-.12-2.31.02-3,0-2.01-.05-4.14-1.09-6-1-.82-1.05-1.88-.84-3-1-.95-.14-2.04.13-3,0-.11-.01-.23-.9-2-1-1.97-.11-4.02-.03-6,0-5.36-1.86-12.24-.98-18-1-3.99-.01-8.01-.08-12,0-2.33.05-4.67-.03-7,0h-4c-1.88.14-4.88-.77-6,1-1.66.06-3.34-.08-5,0l-.5-.98-.5.98ZM358.14,255.71c-35.8-63.06-128.89-44.16-135.98,28.5-.84,8.59,1.45,15.28,2.99,23.48l1,1c.61,10.63,5.41,22.57,10.8,31.69,9.65,16.33,26.24,22.02,43.42,27.38.8.25.77,1.71,1.48,1.88,11.4,2.67,32.66-2.26,43.34-7.42,26.04-12.6,42.16-39.78,42.95-68.52.39-14.25-3.15-25.93-10-37.99ZM700.1,1054.44c-.66.04-1.34-.04-2,0-2.03.11-7.17.77-6,3-.32.07-.68-.07-1,0-1.48.34-1.89.97-2,1-1.75.44-3.86.38-6,1-1.08.31-2.01.7-3,1-21.32,6.56-35.18,16.1-51.99,29.99-8.33,6.88-17.57,14.06-24.42,23.07-1.84,2.42-10.75,14.71-8.57,16.91,2.32,1.01,4.18-1.76,4.99-1.99,15.27-4.45,44.51-16.3,58.99-16.99.37-.02,1.74.06,3,0,1.33-.06,2.67.03,4,0,37.39-.97,82.23,9.38,107.96-23.52,4.52-5.78,5.82-11.32,12.02-16.47.92-.77,2.06-1.25,3-2,.33-.02.67.02,1,0s.67.03,1,0c2.1-.18,2.46,1.02,6.24-.21,3.02-.98,7.94-3.01,8.75-5.78.12-.41,1.94-.76.04-2.5-1.39-1.27-3.31-1.29-5.04-1.5-.73-3.99-5.02-4.22-8.37-5.13-23.42-6.35-60.97-6.71-84.88-2.64-2.2.37-5.73,1.65-7.73,2.77Z"/>
  </g>
</svg>